{
  "accessors": [
    {
      "bufferView": 2,
      "componentType": 5126,
      "count": 1265,
      "max": [
        0.043300412595272064,
        0.12008482217788696,
        0.1049865186214447
      ],
      "min": [
        -0.046900440007448196,
        -0.13402846455574036,
        0.0003399813431315124
      ],
      "type": "VEC3"
    },
    {
      "bufferView": 2,
      "byteOffset": 15180,
      "componentType": 5126,
      "count": 1265,
      "max": [
        0.999962568283081,
        0.9956560730934143,
        0.9998366832733154
      ],
      "min": [
        -0.9981549978256226,
        -0.9877710342407227,
        -0.9999815225601196
      ],
      "type": "VEC3"
    },
    {
      "bufferView": 3,
      "componentType": 5126,
      "count": 1265,
      "max": [
        0.9970834851264954,
        0.9953019618988037,
        0.9981672167778015,
        1.0
      ],
      "min": [
        -0.9999986290931702,
        -0.9761190414428711,
        -0.9969965219497681,
        -1.0
      ],
      "type": "VEC4"
    },
    {
      "bufferView": 1,
      "componentType": 5126,
      "count": 1265,
      "max": [
        0.9926398396492004,
        0.9909672737121582
      ],
      "min": [
        0.008062660694122314,
        0.009265989065170288
      ],
      "type": "VEC2"
    },
    {
      "bufferView": 0,
      "componentType": 5125,
      "count": 6921,
      "type": "SCALAR"
    }
  ],
  "asset": {
    "extras": {
      "author": "Meerschaum Digital (https://sketchfab.com/meerschaumdigital)",
      "license": "CC-BY-4.0 (http://creativecommons.org/licenses/by/4.0/)",
      "source": "https://sketchfab.com/3d-models/nike-dunks-game-ready-2k-pbr-d88162d9ac244b0d9a3aaceaefe475fd",
      "title": "Nike Dunks (Game Ready / 2K PBR)"
    },
    "generator": "Sketchfab-11.53.2",
    "version": "2.0"
  },
  "bufferViews": [
    {
      "buffer": 0,
      "byteLength": 27684,
      "name": "floatBufferViews",
      "target": 34963
    },
    {
      "buffer": 0,
      "byteLength": 10120,
      "byteOffset": 27684,
      "byteStride": 8,
      "name": "floatBufferViews",
      "target": 34962
    },
    {
      "buffer": 0,
      "byteLength": 30360,
      "byteOffset": 37804,
      "byteStride": 12,
      "name": "floatBufferViews",
      "target": 34962
    },
    {
      "buffer": 0,
      "byteLength": 20240,
      "byteOffset": 68164,
      "byteStride": 16,
      "name": "floatBufferViews",
      "target": 34962
    }
  ],
  "buffers": [
    {
      "byteLength": 88404,
      "uri": "scene.bin"
    }
  ],
  "images": [
    {
      "uri": "textures/Material.001_baseColor.jpeg"
    },
    {
      "uri": "textures/Material.001_metallicRoughness.png"
    },
    {
      "uri": "textures/Material.001_normal.jpeg"
    }
  ],
  "materials": [
    {
      "doubleSided": true,
      "name": "Material.001",
      "normalTexture": {
        "index": 2
      },
      "occlusionTexture": {
        "index": 1
      },
      "pbrMetallicRoughness": {
        "baseColorTexture": {
          "index": 0
        },
        "metallicFactor": 0.0,
        "metallicRoughnessTexture": {
          "index": 1
        }
      }
    }
  ],
  "meshes": [
    {
      "name": "Nike Dunks Shoe_Material.001_0",
      "primitives": [
        {
          "attributes": {
            "NORMAL": 1,
            "POSITION": 0,
            "TANGENT": 2,
            "TEXCOORD_0": 3
          },
          "indices": 4,
          "material": 0,
          "mode": 4
        }
      ]
    }
  ],
  "nodes": [
    {
      "children": [
        1
      ],
      "matrix": [
        1.0,
        0.0,
        0.0,
        0.0,
        0.0,
        2.220446049250313e-16,
        -1.0,
        0.0,
        0.0,
        1.0,
        2.220446049250313e-16,
        0.0,
        0.0,
        0.0,
        0.0,
        1.0
      ],
      "name": "Sketchfab_model"
    },
    {
      "children": [
        2
      ],
      "matrix": [
        0.009999999776482582,
        0.0,
        0.0,
        0.0,
        0.0,
        0.0,
        0.009999999776482582,
        0.0,
        0.0,
        -0.009999999776482582,
        0.0,
        0.0,
        0.0,
        0.0,
        0.0,
        1.0
      ],
      "name": "71cad588682346b2916ba0bfdaa0c8d3.fbx"
    },
    {
      "children": [
        3
      ],
      "name": "RootNode"
    },
    {
      "children": [
        4
      ],
      "matrix": [
        100.0,
        0.0,
        0.0,
        0.0,
        0.0,
        -1.629206793918314e-05,
        -99.99999999999868,
        0.0,
        0.0,
        99.99999999999868,
        -1.629206793918314e-05,
        0.0,
        0.25393956899642944,
        0.0,
        0.0,
        1.0
      ],
      "name": "Nike Dunks Shoe"
    },
    {
      "mesh": 0,
      "name": "Nike Dunks Shoe_Material.001_0"
    }
  ],
  "samplers": [
    {
      "magFilter": 9729,
      "minFilter": 9987,
      "wrapS": 10497,
      "wrapT": 10497
    }
  ],
  "scene": 0,
  "scenes": [
    {
      "name": "Sketchfab_Scene",
      "nodes": [
        0
      ]
    }
  ],
  "textures": [
    {
      "sampler": 0,
      "source": 0
    },
    {
      "sampler": 0,
      "source": 1
    },
    {
      "sampler": 0,
      "source": 2
    }
  ]
}
